<?xml version="1.0" encoding="utf-8"?>
<!-- Generator: Adobe Illustrator 26.5.0, SVG Export Plug-In . SVG Version: 6.00 Build 0)  -->
<svg version="1.1" xmlns="http://www.w3.org/2000/svg" xmlns:xlink="http://www.w3.org/1999/xlink" x="0px" y="0px"
	 viewBox="0 0 171.3 171.3" style="enable-background:new 0 0 171.3 171.3;" xml:space="preserve">
<style type="text/css">
	.st0{display:none;}
	.st1{display:inline;}
	.st2{fill:none;stroke:#000000;stroke-width:5;stroke-linecap:round;stroke-linejoin:round;stroke-miterlimit:10;}
</style>
<g id="Ebene_1" class="st0">
	<path class="st1" d="M158.6,29.5c0.3-14.5-18.9-23.3-29.2-12.4c0,0-34.8,34.8-34.8,34.8c-22-2.9-56,14.5-82,40.7l66.5,66.5
		c26.7-26.4,44.3-61.8,40.4-83.7C125.1,67.8,160.6,40.4,158.6,29.5z M113.3,81.8c0.1,18.6-12.9,44.4-34.2,67.5L22.5,92.7
		c22-20.4,47-33.3,65.5-34.1l-6.7,6.7l24.3,24.3L113.3,81.8z M148.9,36.5l-43.4,43.4L90.9,65.3l43.4-43.4c3.9-3.9,10.1-3.9,14,0
		l0.6,0.6C152.7,26.4,152.7,32.6,148.9,36.5L148.9,36.5z"/>
</g>
<g id="Ebene_2">
	<path class="st2" d="M79.9,148l-57-57C45.4,68.5,72,56.8,90.3,59.5l31.7-31.7c6-6,15.8-6,21.8,0s6,15.8,0,21.8l-32.3,32.3
		C113.5,100.2,101.8,126.1,79.9,148z M90.3,59.5l-9.5,12.8c-1.7,2.3-1.5,5.6,0.6,7.7L91.5,90c2,2,5.2,2.3,7.5,0.7l12.5-8.8"/>
</g>
</svg>
